<svg width="103" height="103" viewBox="0 0 103 103" fill="none" xmlns="http://www.w3.org/2000/svg">
<g opacity="0.9">
<path d="M51.5 102.065C79.4256 102.065 102.064 79.426 102.064 51.5003C102.064 23.5746 79.4256 0.936401 51.5 0.936401C23.5745 0.936401 0.936401 23.5746 0.936401 51.5003C0.936401 79.426 23.5745 102.065 51.5 102.065Z" stroke="#6A31F6" stroke-width="0.936364" stroke-miterlimit="10"/>
<path d="M100.913 50.4116C100.951 52.9538 100.858 55.4261 100.563 57.8594C99.8239 63.8844 97.894 69.6685 94.9613 74.8151C93.0323 78.1891 90.7687 81.291 88.3104 84.1753C85.8212 87.0907 83.0285 89.7028 79.8469 91.9651C76.1285 94.6009 71.9823 96.6993 67.5249 98.0991C64.4911 99.0477 61.3484 99.6853 58.1356 100.004C56.0898 100.206 54.0127 100.26 51.8968 100.221C49.0342 100.159 46.2104 99.8867 43.4566 99.4204C41.8619 99.1488 40.2905 98.822 38.7581 98.4175C31.3758 96.482 24.5614 93.0069 19.0538 87.9536C17.3191 86.3599 15.6933 84.6495 14.1608 82.8459C12.3405 80.6924 10.668 78.4223 9.19001 76.0356C7.71977 73.6645 6.45179 71.1689 5.38607 68.5645C4.49926 66.3956 3.77581 64.141 3.24684 61.8242C2.46115 58.3803 2.09554 54.7808 2.16555 51.088C2.21223 48.1804 2.52339 45.335 3.01347 42.5518C4.38257 34.8319 7.1908 27.7418 11.5938 21.6235C14.6509 17.3866 18.4392 13.7093 22.7178 10.7162C26.9572 7.75419 31.6869 5.46078 36.7433 3.9137C41.4885 2.45991 46.5449 1.64361 51.7491 1.56586C60.3292 1.4337 68.4039 3.56386 75.4906 7.3888C82.6551 11.2682 88.7539 16.9045 93.1412 23.7536C98.0813 31.458 100.765 40.6316 100.913 50.435V50.4116Z" stroke="#6A31F6" stroke-width="0.936364" stroke-miterlimit="10"/>
<path d="M99.7527 49.3231C99.8304 51.8186 99.8388 54.2286 99.6207 56.6153C99.0682 62.5238 97.2404 68.3079 94.3002 73.4C92.3552 76.7507 90.1227 79.7904 87.8123 82.7058C85.4941 85.6289 82.9193 88.2566 79.831 90.5579C76.2215 93.24 72.122 95.3472 67.6802 96.6609C64.6697 97.5551 61.558 98.1066 58.4076 98.3239C56.4005 98.4568 54.3702 98.4484 52.3011 98.3557C49.5161 98.2312 46.7546 97.9353 44.0475 97.4849C42.4839 97.2283 40.9436 96.9175 39.4346 96.5438C32.2078 94.7479 25.4323 91.5607 20.1036 86.4997C18.439 84.9137 16.8753 83.2189 15.3818 81.4386C13.6004 79.324 11.9201 77.1238 10.4344 74.8383C8.95632 72.5604 7.67279 70.1815 6.56817 67.6859C5.64246 65.5946 4.89567 63.41 4.3667 61.1477C3.57324 57.7892 3.26208 54.2519 3.40211 50.6292C3.511 47.7915 3.85328 45.0083 4.35114 42.2718C5.7358 34.6841 8.16286 27.7106 12.4491 21.6389C15.4129 17.4563 19.1857 13.8491 23.4175 10.9803C27.6182 8.1272 32.2779 5.97372 37.2642 4.49661C41.9393 3.12056 46.9258 2.29649 52.0054 2.14101C60.3134 1.88445 68.1469 3.85912 75.0702 7.51303C82.0636 11.2136 88.0301 16.6711 92.2774 23.3415C97.0616 30.8591 99.4652 39.7995 99.7611 49.3075L99.7527 49.3231Z" stroke="#6A31F6" stroke-width="0.936364" stroke-miterlimit="10"/>
<path d="M98.5944 48.2355C98.7114 50.6921 98.8201 53.0399 98.6796 55.38C98.3219 61.1796 96.5793 66.9637 93.6392 71.9936C91.6789 75.321 89.4696 78.2985 87.3226 81.245C85.1757 84.1759 82.8108 86.8192 79.8159 89.1515C76.3153 91.8802 72.2547 93.995 67.8362 95.231C64.8413 96.0709 61.7685 96.5288 58.6803 96.6533C56.7122 96.7236 54.7363 96.6383 52.6982 96.5063C49.9911 96.3275 47.284 96.0007 44.6314 95.5728C43.0989 95.3246 41.582 95.0446 40.104 94.6944C33.0406 93.0464 26.2884 90.1465 21.1464 85.0699C19.544 83.4918 18.0505 81.8048 16.5879 80.0633C14.8532 77.9798 13.1653 75.8574 11.6717 73.6728C10.1781 71.496 8.88676 69.2259 7.75102 66.8314C6.7942 64.8102 6.0163 62.7033 5.48732 60.5032C4.68608 57.2225 4.42938 53.7551 4.63163 50.2101C4.78721 47.4347 5.18394 44.7215 5.6818 42.0316C7.07424 34.5682 9.13568 27.7268 13.2897 21.7018C16.1601 17.5659 19.9174 14.0441 24.1025 11.2843C28.2643 8.54775 32.8617 6.52644 37.7703 5.12706C42.3754 3.82098 47.284 3.00469 52.247 2.76369C60.2749 2.37498 67.8673 4.20192 74.6429 7.6848C81.465 11.2066 87.2993 16.493 91.4066 22.9845C96.0353 30.3157 98.159 39.0229 98.6019 48.2355H98.5944Z" stroke="#6A31F6" stroke-width="0.936364" stroke-miterlimit="10"/>
<path d="M97.4353 47.1466C97.5982 49.5644 97.8004 51.8423 97.7386 54.1435C97.5673 59.8265 95.9258 65.6183 92.9777 70.5861C91.0018 73.8901 88.8237 76.7977 86.8245 79.7753C84.8486 82.714 82.7016 85.365 79.7922 87.7439C76.4006 90.5115 72.3866 92.6417 67.9837 93.7919C65.0121 94.5775 61.9705 94.9511 58.9444 94.9736C57.0075 94.9895 55.0861 94.8266 53.0946 94.6477C50.4653 94.4061 47.8204 94.0644 45.2067 93.6449C43.7054 93.4036 42.2196 93.147 40.7648 92.836C33.8571 91.3278 27.1361 88.7234 22.1808 83.6313C20.6484 82.0609 19.2247 80.3894 17.7934 78.6713C16.0977 76.6267 14.4096 74.5821 12.9082 72.4908C11.4069 70.4073 10.1 68.2538 8.92536 65.9682C7.92965 64.0246 7.1284 61.9877 6.59943 59.8498C5.79041 56.6546 5.58038 53.2495 5.85264 49.7744C6.06268 47.0689 6.4983 44.4101 7.00394 41.7746C8.40417 34.4435 10.1 27.7266 14.1217 21.7403C16.8988 17.6511 20.6405 14.2148 24.7867 11.5716C28.9019 8.95165 33.4448 7.05473 38.2756 5.74087C42.8108 4.50477 47.6494 3.69624 52.4878 3.3775C60.2436 2.86439 67.587 4.54364 74.2069 7.8477C80.8502 11.1984 86.5677 16.2983 90.5273 22.611C94.9998 29.7556 96.8519 38.2296 97.4353 47.1466Z" stroke="#6A31F6" stroke-width="0.936364" stroke-miterlimit="10"/>
<path d="M96.2836 46.0509C96.4858 48.4299 96.7892 50.6455 96.8051 52.9001C96.821 58.4665 95.2807 64.2583 92.3243 69.1716C90.3329 72.4524 88.1859 75.2977 86.3344 78.3064C84.5298 81.245 82.5927 83.9195 79.7768 86.3372C76.494 89.1515 72.5267 91.2894 68.1394 92.3623C65.191 93.093 62.1806 93.3807 59.2168 93.3029C57.3187 93.2563 55.444 93.0153 53.4915 92.7898C50.9399 92.4944 48.3573 92.1213 45.7902 91.717C44.32 91.4838 42.8575 91.2583 41.4339 90.9707C34.6896 89.6102 27.9996 87.2935 23.2232 82.1858C21.7608 80.6231 20.3994 78.9672 19.0071 77.2802C17.3501 75.2744 15.6621 73.2998 14.1452 71.3095C12.636 69.3271 11.3136 67.2824 10.1001 65.1057C9.06543 63.2399 8.24086 61.2729 7.71188 59.1972C6.90286 56.0875 6.7395 52.7445 7.08178 49.3472C7.34626 46.704 7.82857 44.1151 8.3342 41.5263C9.7422 34.3195 11.0569 27.727 14.9697 21.7952C17.6457 17.7448 21.3718 14.3941 25.4792 11.8674C29.5554 9.35636 34.0361 7.59936 38.789 6.35548C43.2542 5.18934 48.0149 4.38859 52.7368 3.98433C60.2125 3.34684 67.3225 4.85505 73.7869 8.00363C80.2668 11.16 85.8444 16.0967 89.6638 22.2383C93.981 29.1963 95.5607 37.4371 96.2836 46.0587V46.0509Z" stroke="#6A31F6" stroke-width="0.936364" stroke-miterlimit="10"/>
<path d="M95.1242 44.9617C95.3658 47.3018 95.7778 49.4474 95.863 51.6631C96.0812 57.1129 94.6186 62.9124 91.6549 67.7637C89.6479 71.0211 87.5242 73.7965 85.8361 76.8362C84.2026 79.7749 82.4834 82.4725 79.7607 84.9214C76.5869 87.7824 72.6663 89.9203 68.3023 90.9154C65.3696 91.584 62.3979 91.7939 59.4964 91.6151C57.6372 91.5063 55.8169 91.1953 53.9032 90.9232C51.4296 90.5656 48.9092 90.1691 46.3887 89.7881C44.9419 89.5627 43.5183 89.3605 42.1181 89.104C35.5293 87.8834 28.8704 85.8622 24.273 80.7388C22.8805 79.184 21.5815 77.5359 20.2201 75.88C18.6021 73.9053 16.914 72.0084 15.3893 70.1115C13.8724 68.2301 12.5267 66.2943 11.2898 64.2186C10.2163 62.4227 9.37617 60.5335 8.83162 58.52C8.0226 55.488 7.89814 52.2228 8.31043 48.8877C8.62937 46.3144 9.15057 43.7878 9.664 41.2456C11.0798 34.171 12.021 27.7027 15.8095 21.8098C18.3843 17.8061 22.1027 14.5409 26.1633 12.1309C30.2006 9.73645 34.6191 8.11161 39.2943 6.94546C43.6972 5.84929 48.3802 5.05632 52.9776 4.57431C60.1731 3.81244 67.0498 5.16515 73.3509 8.14271C79.6596 11.128 85.1127 15.8781 88.7844 21.841C92.9461 28.6123 94.2534 36.6198 95.1167 44.9462L95.1242 44.9617Z" stroke="#6A31F6" stroke-width="0.936364" stroke-miterlimit="10"/>
<path d="M93.9659 43.8733C94.2534 46.1744 94.7591 48.2579 94.922 50.427C95.3265 55.7679 93.966 61.5597 90.994 66.3564C88.9793 69.5827 86.8711 72.2881 85.3387 75.3746C83.8763 78.3133 82.3671 81.0342 79.7378 83.522C76.6728 86.4218 72.7911 88.5753 68.4504 89.4848C65.5333 90.0991 62.6006 90.2157 59.769 89.9436C57.9487 89.7725 56.1752 89.3916 54.3004 89.0651C51.9044 88.6531 49.4385 88.2254 46.9726 87.8601C45.5568 87.6501 44.1566 87.4714 42.7874 87.2381C36.362 86.1575 29.7264 84.4393 25.3158 79.2928C23.9855 77.7457 22.7564 76.1131 21.434 74.4883C19.8549 72.5525 18.1668 70.7333 16.6344 68.9297C15.1019 67.1416 13.7483 65.3224 12.4726 63.3555C11.3602 61.6375 10.4967 59.8182 9.95222 57.8669C9.13539 54.9205 9.06538 51.7175 9.53993 48.46C9.90549 45.949 10.4812 43.4922 10.9868 40.9967C12.4104 34.0465 12.9783 27.7105 16.6499 21.8642C19.1314 17.9071 22.8342 14.7197 26.8482 12.4262C30.8466 10.1484 35.2029 8.65576 39.8003 7.56735C44.1332 6.54892 48.7384 5.75595 53.2191 5.18843C60.1424 4.30993 66.7702 5.4994 72.9233 8.30591C79.061 11.1124 84.3819 15.6837 87.9136 21.4755C91.9197 28.0603 92.9622 35.8346 93.9575 43.8655L93.9659 43.8733Z" stroke="#6A31F6" stroke-width="0.936364" stroke-miterlimit="10"/>
<path d="M92.8063 42.7854C93.1331 45.0478 93.7393 47.0614 93.9809 49.1837C94.5802 54.4081 93.3119 60.2076 90.3326 64.9422C88.3023 68.1452 86.2252 70.7807 84.8484 73.9059C83.557 76.8368 82.2579 79.5812 79.722 82.1155C76.7582 85.062 72.9309 87.2232 68.6058 88.0551C65.7119 88.6148 62.8104 88.6459 60.041 88.2728C58.2597 88.0318 56.5405 87.5887 54.7047 87.2154C52.3865 86.749 49.9828 86.2981 47.5635 85.9405C46.1788 85.7383 44.8098 85.5829 43.4718 85.3807C37.2097 84.4323 30.5974 83.0173 26.3734 77.8553C25.1133 76.316 23.9542 74.6989 22.6551 73.0974C21.1148 71.1927 19.4268 69.4512 17.8787 67.7487C16.3385 66.0617 14.9617 64.3513 13.6548 62.4933C12.5034 60.8529 11.6167 59.1036 11.0721 57.2145C10.2475 54.3536 10.2242 51.2128 10.7687 48.0253C11.1888 45.5842 11.8033 43.1898 12.3167 40.7409C13.7481 33.9229 13.9504 27.7034 17.4898 21.9038C19.8779 17.9933 23.5653 14.8914 27.5403 12.7068C31.492 10.5378 35.7939 9.17729 40.3134 8.16664C44.5763 7.21818 49.1037 6.43298 53.4677 5.77994C60.1111 4.78483 66.5054 5.81104 72.4952 8.44652C78.4617 11.0742 83.6504 15.4667 87.042 21.0797C90.8926 27.478 91.6783 35.019 92.7985 42.7544L92.8063 42.7854Z" stroke="#6A31F6" stroke-width="0.936364" stroke-miterlimit="10"/>
<path d="M91.6478 41.697C92.0211 43.9204 92.7213 45.8718 93.0403 47.9475C93.8255 53.0552 92.6668 58.8626 89.6719 63.5349C87.626 66.7223 85.5724 69.2723 84.3511 72.4364C83.2231 75.3673 82.1496 78.135 79.707 80.7005C76.852 83.6936 73.0715 85.8626 68.7619 86.6089C65.8837 87.1065 63.0132 87.0521 60.3139 86.5934C58.5636 86.2902 56.8989 85.7771 55.1019 85.3573C52.8616 84.8364 50.5201 84.3544 48.1475 84.0123C46.7939 83.818 45.4482 83.6936 44.1413 83.5226C38.0348 82.714 31.4538 81.6023 27.4164 76.4169C26.2262 74.8854 25.1294 73.276 23.8692 71.7134C22.3679 69.8476 20.6798 68.1761 19.124 66.5747C17.5759 64.9809 16.1757 63.3872 14.8455 61.638C13.6554 60.0676 12.7452 58.3961 12.2006 56.5692C11.3683 53.7859 11.3916 50.7151 12.0139 47.6054C12.4885 45.2265 13.1497 42.902 13.6631 40.4998C15.11 33.8061 14.9311 27.7188 18.3539 21.9658C20.6487 18.102 24.3126 15.0856 28.2488 13.0177C32.1617 10.9653 36.4011 9.73694 40.843 8.804C45.0359 7.92551 49.4855 7.15586 53.7329 6.4173C60.0961 5.30558 66.2493 6.16852 72.0835 8.63297C77.879 11.0818 82.9431 15.2956 86.1869 20.7375C89.8819 26.9414 90.411 34.2648 91.6556 41.697H91.6478Z" stroke="#6A31F6" stroke-width="0.936364" stroke-miterlimit="10"/>
<path d="M90.4885 40.6006C90.9086 42.7852 91.7021 44.6666 92.0988 46.7035C93.0711 51.6946 92.0132 57.5097 89.0105 62.1198C86.9491 65.2761 84.911 67.7562 83.8608 70.967C82.8962 73.89 82.0405 76.6888 79.6912 79.2932C76.9453 82.3252 73.2113 84.5097 68.9173 85.1784C66.0624 85.6214 63.223 85.4816 60.586 84.9218C58.8746 84.5563 57.2643 83.9733 55.5063 83.4991C53.3515 82.9238 51.0567 82.4107 48.7385 82.0919C47.4161 81.9053 46.1014 81.8043 44.8179 81.6644C38.8747 80.9957 32.317 80.1873 28.4664 74.9862C27.3462 73.4625 26.3116 71.8688 25.0903 70.3294C23.6279 68.5025 21.9398 66.901 20.3763 65.4006C18.8204 63.9079 17.3968 62.423 16.0356 60.7748C14.7986 59.2822 13.8729 57.6807 13.3284 55.916C12.4883 53.2183 12.566 50.2174 13.2506 47.1699C13.7718 44.861 14.4797 42.5986 15.0009 40.243C16.4556 33.6815 15.911 27.7187 19.2016 22.0124C21.4031 18.1952 25.0514 15.2565 28.9409 13.3051C32.8149 11.3694 36.9922 10.2732 41.3485 9.41025C45.4714 8.6095 49.8432 7.84762 53.9816 7.01577C60.0648 5.79521 65.9768 6.48713 71.6633 8.78053C77.2875 11.0507 82.2194 15.0855 85.3233 20.3487C88.855 26.3659 89.1428 33.4561 90.5041 40.5928L90.4885 40.6006Z" stroke="#6A31F6" stroke-width="0.936364" stroke-miterlimit="10"/>
<path d="M89.3291 39.5122C89.7959 41.6579 90.6827 43.4693 91.1571 45.4673C92.3163 50.3418 91.3516 56.1647 88.349 60.7126C86.2719 63.8457 84.2572 66.248 83.3626 69.5054C82.5613 72.4207 81.9312 75.2505 79.6676 77.8938C77.0305 80.9725 73.3432 83.1648 69.0648 83.7478C66.2332 84.1365 63.425 83.9034 60.8501 83.2503C59.1776 82.8227 57.6141 82.1697 55.8949 81.6488C53.8179 81.0191 51.5853 80.4749 49.3139 80.1717C48.0225 80.0006 46.739 79.9229 45.4788 79.8063C39.6989 79.2776 33.1646 78.7723 29.5007 73.548C28.4427 72.0398 27.4781 70.4538 26.2879 68.9456C24.8721 67.1498 23.1685 65.6338 21.5971 64.2266C20.0258 62.8273 18.5867 61.459 17.1942 59.9197C15.9184 58.5048 14.9694 56.9733 14.4171 55.2707C13.577 52.6585 13.6937 49.7198 14.4483 46.7501C15.0238 44.5033 15.7785 42.3109 16.2996 40.0098C17.7622 33.5727 16.852 27.742 20.0103 22.0745C22.1184 18.304 25.7512 15.4509 29.594 13.6162C33.4212 11.7891 37.5441 10.8329 41.8226 10.0478C45.8755 9.31696 50.1695 8.57063 54.1913 7.65327C59.9944 6.32387 65.6731 6.84475 71.1962 8.96712C76.6415 11.0584 81.4567 14.9144 84.4128 20.0066C87.7889 25.8373 87.8277 32.702 89.3058 39.5356L89.3291 39.5122Z" stroke="#6A31F6" stroke-width="0.936364" stroke-miterlimit="10"/>
<path d="M88.1784 38.4235C88.6918 40.5304 89.672 42.2796 90.2243 44.231C91.5701 48.9888 90.7066 54.8117 87.6883 59.3053C85.5958 62.415 83.5966 64.7395 82.8654 68.0358C82.2274 70.9434 81.8151 73.8042 79.6448 76.4786C77.1167 79.5961 73.4761 81.804 69.2132 82.3093C66.3972 82.6436 63.6278 82.3249 61.1151 81.5708C59.4816 81.081 57.9647 80.358 56.2844 79.7905C54.2852 79.1141 52.1148 78.5388 49.89 78.2433C48.6299 78.0801 47.3697 78.0257 46.1405 77.9401C40.5164 77.5437 34.0053 77.3493 30.5358 72.1017C29.5479 70.6013 28.6533 69.0231 27.4943 67.5537C26.1173 65.7967 24.4138 64.3508 22.8346 63.0447C21.2555 61.7464 19.793 60.487 18.3773 59.0565C17.0548 57.7115 16.0902 56.2577 15.5379 54.6174C14.69 52.0829 14.8533 49.2142 15.6857 46.3145C16.308 44.1376 17.117 41.9997 17.6383 39.753C19.1085 33.448 17.8249 27.7417 20.8665 22.1209C22.8813 18.397 26.4908 15.6294 30.3025 13.9035C34.0908 12.1932 38.1515 11.3613 42.3522 10.6616C46.335 10.0008 50.559 9.27002 54.4564 8.25937C59.9794 6.82889 65.417 7.17096 70.7923 9.13008C76.0664 11.0504 80.7495 14.7198 83.5654 19.6332C86.7859 25.2773 86.5837 31.9087 88.1706 38.4469L88.1784 38.4235Z" stroke="#6A31F6" stroke-width="0.936364" stroke-miterlimit="10"/>
<path d="M87.0193 37.336C87.5795 39.4039 88.6529 41.0831 89.283 42.9879C90.8233 47.6368 90.0532 53.4598 87.0271 57.8833C84.919 60.9697 82.9354 63.2165 82.3753 66.5594C81.8929 69.4592 81.7141 72.3435 79.6371 75.0645C77.2178 78.2287 73.6239 80.4443 69.3843 80.864C66.5916 81.1439 63.8534 80.7319 61.4031 79.8845C59.8083 79.3325 58.3458 78.5396 56.7045 77.9176C54.7831 77.1868 52.6749 76.5805 50.4969 76.3084C49.26 76.1529 48.0386 76.1295 46.833 76.0673C41.3721 75.8108 34.8765 75.9274 31.6016 70.6487C30.6759 69.156 29.8513 67.5934 28.7233 66.1474C27.3853 64.4215 25.6817 63.0532 24.0949 61.8482C22.5079 60.6432 21.0143 59.5081 19.5752 58.171C18.2061 56.9038 17.226 55.5122 16.6736 53.9418C15.818 51.4928 16.028 48.6864 16.9304 45.8643C17.6072 43.7497 18.4551 41.6817 18.984 39.4816C20.4621 33.3011 18.8128 27.7269 21.7222 22.145C23.6436 18.4678 27.2376 15.7779 31.0026 14.1685C34.7521 12.5671 38.7506 11.8752 42.8734 11.2455C46.7862 10.6547 50.9325 9.94714 54.713 8.83544C59.9561 7.30391 65.1525 7.46717 70.3722 9.25525C75.4753 10.9967 80.026 14.4874 82.7097 19.2297C85.7747 24.6872 85.3313 31.0855 87.0271 37.3282L87.0193 37.336Z" stroke="#6A31F6" stroke-width="0.936364" stroke-miterlimit="10"/>
<path d="M85.8605 36.2471C86.475 38.2762 87.6341 39.8932 88.342 41.7512C90.0689 46.2837 89.3922 52.1066 86.3662 56.4757C84.2425 59.5388 82.2666 61.7079 81.8776 65.0974C81.5509 67.9817 81.5976 70.9048 79.6139 73.6647C77.3036 76.8754 73.7563 79.0988 69.5323 79.4409C66.7552 79.6664 64.0559 79.1688 61.6678 78.2203C60.1041 77.6062 58.6961 76.751 57.0936 76.0747C55.25 75.2972 53.1964 74.652 51.0727 74.3954C49.867 74.2477 48.669 74.2477 47.4943 74.2244C42.1968 74.1 35.7169 74.5276 32.6364 69.2255C31.773 67.7484 31.0183 66.1936 29.9294 64.7787C28.6302 63.0916 26.9266 61.8011 25.3241 60.6816C23.7294 59.5776 22.2125 58.5515 20.7423 57.3231C19.3265 56.1337 18.3308 54.812 17.7784 53.296C16.915 50.9326 17.1717 48.1961 18.1441 45.4363C18.8675 43.3916 19.7699 41.3859 20.2989 39.2324C21.7847 33.184 19.7699 27.7342 22.5548 22.1989C24.3829 18.5684 27.9612 15.964 31.6796 14.4713C35.3902 12.9864 39.3264 12.4267 43.3715 11.8748C47.2143 11.3616 51.2828 10.6619 54.9467 9.46466C59.9097 7.8321 64.8649 7.82433 69.9368 9.43358C74.8687 10.9963 79.295 14.3081 81.831 18.8793C84.7403 24.1503 84.0713 30.3153 85.8605 36.2549V36.2471Z" stroke="#6A31F6" stroke-width="0.936364" stroke-miterlimit="10"/>
<path d="M84.7012 35.1512C85.3701 37.1414 86.6148 38.6885 87.4004 40.5077C89.3141 44.9235 88.7385 50.7542 85.7047 55.0611C83.5654 58.1008 81.5973 60.1843 81.3873 63.6206C81.2084 66.4971 81.4962 69.4513 79.5981 72.25C77.3966 75.4997 73.8883 77.7387 69.6876 77.9952C66.9339 78.1662 64.2657 77.5754 61.9398 76.5336C60.4151 75.8495 59.0537 74.9321 57.498 74.2092C55.7321 73.3851 53.7407 72.7009 51.6637 72.4599C50.489 72.32 49.3222 72.3433 48.1787 72.351C43.0445 72.3666 36.5801 73.1052 33.6941 67.772C32.9006 66.3027 32.2084 64.7556 31.1581 63.3718C29.898 61.7236 28.1944 60.5031 26.5841 59.4847C24.9738 58.474 23.4336 57.5721 21.9478 56.4449C20.4854 55.341 19.4741 54.0816 18.9217 52.6278C18.0505 50.3499 18.3539 47.6755 19.4041 44.9934C20.1742 43.0109 21.1232 41.0752 21.6599 38.9684C23.1535 33.0444 20.7653 27.7268 23.4258 22.2303C25.1605 18.6464 28.7233 16.1276 32.395 14.7437C36.059 13.3754 39.9407 12.9479 43.9079 12.4736C47.6808 12.0305 51.6714 11.3619 55.2187 10.0558C59.9095 8.32994 64.6235 8.13559 69.5321 9.57386C74.2851 10.9654 78.5868 14.0907 80.9828 18.4832C83.7365 23.5675 82.8419 29.4993 84.7323 35.1434L84.7012 35.1512Z" stroke="#6A31F6" stroke-width="0.936364" stroke-miterlimit="10"/>
<path d="M83.5418 34.0627C84.2652 36.0141 85.5954 37.499 86.4589 39.2715C88.5592 43.5706 88.0691 49.4014 85.0432 53.6539C82.8883 56.6625 80.9203 58.6761 80.8891 62.159C80.858 65.0277 81.3792 68.013 79.5823 70.8428C77.4897 74.1391 74.0281 76.3859 69.8429 76.5647C67.1047 76.6813 64.4754 75.9972 62.2117 74.8621C60.7259 74.1158 59.419 73.1362 57.8943 72.351C56.2062 71.4803 54.2771 70.7573 52.2467 70.5396C51.1033 70.4153 49.9598 70.4619 48.8474 70.493C43.8687 70.6407 37.4278 71.698 34.7362 66.3337C34.005 64.8799 33.3904 63.3407 32.3636 61.9879C31.1423 60.3709 29.4387 59.228 27.8207 58.3107C26.2026 57.4011 24.6312 56.6159 23.1221 55.5897C21.6129 54.5635 20.5861 53.374 20.0261 51.9825C19.147 49.7823 19.497 47.1779 20.6172 44.5658C21.4419 42.6533 22.4375 40.7797 22.9666 38.7195C24.4757 32.9277 21.7141 27.7345 24.25 22.2847C25.8915 18.7474 29.4309 16.3063 33.0715 15.0469C36.6965 13.7874 40.516 13.492 44.4055 13.0955C48.1083 12.7223 52.0212 12.0771 55.4517 10.6699C59.8625 8.85853 64.3354 8.46982 69.0961 9.73702C73.678 10.9498 77.8553 13.8963 80.1035 18.1177C82.7016 23.0155 81.5814 28.714 83.5651 34.0627H83.5418Z" stroke="#6A31F6" stroke-width="0.936364" stroke-miterlimit="10"/>
<path d="M82.3825 32.9738C83.1605 34.8863 84.5685 36.3012 85.5175 38.0349C87.8045 42.2252 87.4156 48.0481 84.3818 52.2463C82.2114 55.2316 80.2511 57.1673 80.3989 60.6968C80.5156 63.5578 81.2701 66.5742 79.5665 69.443C77.5751 72.7859 74.1679 75.0481 69.9984 75.1337C67.2835 75.1959 64.6853 74.4184 62.4838 73.1901C61.0369 72.3815 59.7767 71.3398 58.2987 70.5002C56.6884 69.5828 54.8215 68.8287 52.8378 68.6189C51.7254 68.5022 50.613 68.5722 49.5239 68.6344C44.7088 68.9143 38.2755 70.2825 35.7862 64.8949C35.1172 63.4489 34.5726 61.9252 33.5848 60.5958C32.4023 59.0176 30.6987 57.9448 29.0651 57.1285C27.4393 56.3121 25.8368 55.6513 24.3044 54.7184C22.7485 53.7778 21.7062 52.6505 21.1461 51.321C20.2593 49.2064 20.656 46.6643 21.8462 44.1299C22.7174 42.2796 23.7598 40.476 24.2966 38.4624C25.8135 32.795 22.6863 27.7339 25.0901 22.3231C26.6381 18.8324 30.162 16.4768 33.7558 15.3262C37.342 14.1834 41.0993 14.0202 44.911 13.7014C48.5438 13.3981 52.3867 12.7917 55.6927 11.2758C59.8311 9.37888 64.0552 8.80358 68.6603 9.89201C73.071 10.9337 77.1161 13.6935 79.2243 17.7362C81.6669 22.4474 80.3289 27.9049 82.3981 32.9661L82.3825 32.9738Z" stroke="#6A31F6" stroke-width="0.936364" stroke-miterlimit="10"/>
<path d="M81.2233 31.8859C82.0634 33.7517 83.5492 35.1122 84.576 36.7914C87.0498 40.8651 86.762 46.6959 83.7204 50.8318C81.5344 53.7938 79.5664 55.6596 79.9009 59.2202C80.1654 62.0812 81.161 65.1131 79.543 68.0285C77.6605 71.4102 74.3 73.6881 70.146 73.6959C67.4467 73.6959 64.8874 72.8407 62.7481 71.5113C61.3401 70.6406 60.1265 69.5367 58.6874 68.6349C57.1472 67.6709 55.3425 66.8779 53.4055 66.6835C52.3242 66.5747 51.2352 66.6679 50.1772 66.7612C45.5254 67.1733 39.0999 68.8603 36.8129 63.4416C36.2061 62.0111 35.7316 60.4874 34.7748 59.1969C33.6312 57.6498 31.9277 56.6624 30.2862 55.9395C28.6449 55.2243 27.0268 54.6801 25.4711 53.8482C23.8608 52.993 22.8028 51.9279 22.2505 50.6607C21.3559 48.6316 21.7915 46.1517 23.0673 43.6872C23.9852 41.9069 25.0821 40.1655 25.6188 38.1986C27.1435 32.6632 23.6508 27.7266 25.9222 22.3624C27.3769 18.9261 30.8852 16.6482 34.4324 15.6143C37.9719 14.5881 41.667 14.557 45.4087 14.3083C48.9715 14.075 52.7442 13.4997 55.9259 11.8748C59.7998 9.90024 63.7671 9.12278 68.2167 10.0401C72.4485 10.9109 76.3769 13.4842 78.3373 17.3558C80.6165 21.8726 79.0763 27.0969 81.2233 31.8703V31.8859Z" stroke="#6A31F6" stroke-width="0.936364" stroke-miterlimit="10"/>
<path d="M80.0649 30.7894C80.9672 32.6086 82.5308 33.9146 83.6354 35.5473C86.288 39.5121 86.1013 45.3351 83.052 49.4166C80.8505 52.3475 78.8824 54.1433 79.3958 57.7506C79.8081 60.6037 81.0372 63.6668 79.5125 66.6133C77.7389 70.0417 74.4251 72.3351 70.2866 72.2496C67.6106 72.203 65.0824 71.2467 63.0055 69.8318C61.6363 68.8911 60.4695 67.7328 59.077 66.7765C57.6146 65.7736 55.872 64.934 53.9818 64.7629C52.9316 64.6619 51.8737 64.7786 50.8391 64.9029C46.3505 65.4471 39.9251 67.4529 37.8481 62.0031C37.3036 60.5804 36.8991 59.0722 35.9812 57.805C34.8843 56.2968 33.1729 55.3794 31.5238 54.7575C29.8746 54.1356 28.2254 53.7157 26.6463 52.985C24.9894 52.2153 23.9158 51.2124 23.3636 50.0074C22.4612 48.0638 22.9435 45.646 24.2892 43.2593C25.2539 41.5412 26.3974 39.8698 26.9419 37.9495C28.4743 32.5386 24.6159 27.7341 26.7629 22.4088C28.1243 19.0191 31.617 16.819 35.1176 15.9017C38.6182 14.9843 42.251 15.0931 45.9149 14.9221C49.4077 14.7666 53.1183 14.2224 56.1677 12.4887C59.7694 10.4363 63.4878 9.46456 67.7895 10.2031C71.8502 10.895 75.6464 13.2973 77.4667 16.9823C79.5903 21.3126 77.8478 26.2881 80.0649 30.7816V30.7894Z" stroke="#6A31F6" stroke-width="0.936364" stroke-miterlimit="10"/>
<path d="M78.9132 29.7014C79.8777 31.474 81.5192 32.7178 82.7015 34.3115C85.5408 38.1598 85.4554 43.9905 82.3981 48.0098C80.1811 50.9174 78.2053 52.6433 78.9132 56.2894C79.4654 59.1426 80.9435 62.2289 79.5122 65.2143C77.8474 68.6816 74.5802 70.9906 70.4651 70.8273C67.8047 70.7262 65.3154 69.6768 63.3006 68.1685C61.9704 67.1656 60.8425 65.9451 59.4967 64.9345C58.1043 63.8849 56.4317 63.0064 54.5881 62.851C53.5613 62.7654 52.5345 62.9054 51.531 63.0608C47.1981 63.7295 40.7804 66.0617 38.9134 60.5808C38.4311 59.1737 38.1044 57.6732 37.2098 56.4372C36.1519 54.9678 34.4327 54.1204 32.7758 53.5995C31.1188 53.0786 29.4386 52.7833 27.8361 52.1457C26.1325 51.4616 25.0434 50.5209 24.4911 49.3781C23.581 47.5201 24.11 45.1645 25.5257 42.8477C26.537 41.1917 27.735 39.5825 28.2795 37.7167C29.8197 32.438 25.6113 27.7656 27.6105 22.4791C28.8863 19.1362 32.3479 17.0216 35.8174 16.213C39.279 15.4123 42.8496 15.6533 46.4358 15.56C49.8585 15.4745 53.5069 14.9769 56.424 13.1189C59.7689 10.9965 63.2229 9.82263 67.3691 10.3823C71.2586 10.9032 74.9225 13.1189 76.6028 16.6329C78.5708 20.7766 76.6261 25.5033 78.9132 29.717V29.7014Z" stroke="#6A31F6" stroke-width="0.936364" stroke-miterlimit="10"/>
<path d="M77.7544 28.6124C78.7813 30.3383 80.5004 31.5278 81.7606 33.0748C84.7866 36.8065 84.8022 42.6449 81.7373 46.6021C79.5047 49.4863 77.521 51.1423 78.4156 54.8194C79.108 57.6726 80.8271 60.7824 79.4891 63.8066C77.9334 67.3206 74.7129 69.6372 70.6133 69.3885C67.9762 69.233 65.518 68.0902 63.5654 66.4887C62.2742 65.4236 61.1929 64.1486 59.8938 63.068C58.5714 61.9719 56.9611 61.0623 55.1719 60.9145C54.1762 60.8368 53.1805 61 52.2081 61.1866C48.0386 61.9874 41.6208 64.6384 39.9562 59.1264C39.5361 57.727 39.2794 56.2344 38.4237 55.0294C37.4047 53.5911 35.6855 52.8215 34.0207 52.4017C32.3561 51.9741 30.6447 51.8108 29.0266 51.2588C27.2686 50.668 26.1718 49.7817 25.6116 48.7012C24.6937 46.9286 25.2616 44.6352 26.763 42.3962C27.8287 40.8025 29.0655 39.2632 29.6179 37.444C31.1659 32.2896 26.584 27.7495 28.4665 22.5018C29.649 19.2055 33.095 17.1686 36.5178 16.4845C39.9328 15.8004 43.449 16.1658 46.9573 16.1503C50.31 16.1347 53.8962 15.6838 56.6888 13.7014C59.7771 11.509 62.9665 10.1408 66.9649 10.5139C70.6755 10.8715 74.2228 12.8928 75.7552 16.228C77.5677 20.1851 75.4207 24.6553 77.7778 28.5969L77.7544 28.6124Z" stroke="#6A31F6" stroke-width="0.936364" stroke-miterlimit="10"/>
<path d="M26.7242 48.056C27.2843 49.0743 28.3967 49.9062 30.2014 50.4038C31.8506 50.8624 33.5775 50.9013 35.2578 51.2279C36.938 51.5544 38.6494 52.2463 39.6296 53.6457C40.4464 54.8196 40.6331 56.3045 40.9909 57.6882C42.4301 63.2313 48.8555 60.2538 52.8695 59.3286C53.8185 59.1109 54.7832 58.9244 55.7477 58.9944C57.4903 59.1187 59.0305 60.0749 60.2829 61.2178C61.5354 62.3528 62.57 63.69 63.8301 64.8172C65.7204 66.5198 68.1397 67.7481 70.7613 67.9581C74.8452 68.2846 78.0191 65.9601 79.466 62.3995C80.7106 59.3364 78.7503 56.2033 77.918 53.358C76.8289 49.6419 78.8204 48.056 81.0685 45.195C84.1412 41.2923 84.0245 35.4616 80.8117 31.8388C79.4738 30.3384 77.6923 29.1955 76.5956 27.5241C74.1763 23.8468 76.5177 19.641 74.8608 15.8704C73.4684 12.7064 70.0534 10.8715 66.5139 10.685C62.6711 10.4829 59.7539 12.061 56.9146 14.3234C54.2697 16.4302 50.7381 16.8345 47.4475 16.7722C44.0247 16.7101 40.5708 16.2047 37.1948 16.78C33.8187 17.3553 30.3882 19.3067 29.2991 22.5563C27.5488 27.7573 32.4962 32.1731 30.9404 37.1953C30.3882 38.9678 29.0968 40.4371 27.9844 41.9687C26.413 44.13 25.7985 46.3611 26.7242 48.056Z" stroke="#6A31F6" stroke-width="0.936364" stroke-miterlimit="10"/>
</g>
</svg>
