<svg width="105" height="103" viewBox="0 0 105 103" fill="none" xmlns="http://www.w3.org/2000/svg">
<g opacity="0.9">
<path d="M103.69 65.1164C104.63 52.006 82.472 39.7117 54.198 37.6564C25.9239 35.6012 2.24088 44.5631 1.30052 57.6736C0.360166 70.784 22.5186 83.0783 50.7926 85.1337C79.0667 87.1889 102.75 78.2269 103.69 65.1164Z" stroke="#6A31F6" stroke-width="0.824" stroke-miterlimit="10"/>
<path d="M101.808 62.3797C102.177 49.5618 80.0628 38.5169 52.4143 37.7102C24.7659 36.9036 2.05324 46.6406 1.68424 59.4586C1.31524 72.2765 23.4296 83.3214 51.0781 84.1281C78.7266 84.9347 101.439 75.1976 101.808 62.3797Z" stroke="#6A31F6" stroke-width="0.824" stroke-miterlimit="10"/>
<path d="M51.3828 83.1352C78.401 82.6936 100.14 72.1804 99.9379 59.6532C99.7359 47.126 77.6695 37.3285 50.6513 37.7701C23.6329 38.2117 1.894 48.7249 2.096 61.2521C2.298 73.7793 24.3644 83.5767 51.3828 83.1352Z" stroke="#6A31F6" stroke-width="0.824" stroke-miterlimit="10"/>
<path d="M51.675 82.1337C78.0661 80.4436 98.8333 69.1539 98.0601 56.9175C97.2869 44.681 75.2659 36.1316 48.8748 37.8217C22.4838 39.5119 1.71637 50.8017 2.4896 63.0381C3.26284 75.2745 25.2839 83.8239 51.675 82.1337Z" stroke="#6A31F6" stroke-width="0.824" stroke-miterlimit="10"/>
<path d="M51.9607 81.1372C77.7276 78.2 97.5268 66.1366 96.1835 54.1927C94.84 42.2488 72.8628 34.9473 47.0959 37.8845C21.329 40.8216 1.5298 52.8851 2.87317 64.829C4.21654 76.7729 26.1937 84.0743 51.9607 81.1372Z" stroke="#6A31F6" stroke-width="0.824" stroke-miterlimit="10"/>
<path d="M52.2419 80.1475C77.38 75.9625 96.2063 63.1214 94.2917 51.466C92.3771 39.8105 70.4465 33.7546 45.3084 37.9395C20.1704 42.1245 1.34405 54.9657 3.25864 66.6211C5.17323 78.2765 27.1038 84.3325 52.2419 80.1475Z" stroke="#6A31F6" stroke-width="0.824" stroke-miterlimit="10"/>
<path d="M52.5373 79.1458C77.0496 73.7112 94.9056 60.0952 92.4201 48.7335C89.9347 37.3718 68.0487 32.5669 43.5365 38.0015C19.0243 43.4361 1.16816 57.0521 3.65366 68.4138C6.13917 79.7755 28.0252 84.5804 52.5373 79.1458Z" stroke="#6A31F6" stroke-width="0.824" stroke-miterlimit="10"/>
<path d="M52.8242 78.1528C76.7073 71.4714 93.5906 57.0788 90.5341 46.0059C87.4776 34.9331 65.6387 31.3731 41.7557 38.0545C17.8725 44.7358 0.989298 59.1285 4.0458 70.2013C7.1023 81.2742 28.9411 84.8342 52.8242 78.1528Z" stroke="#6A31F6" stroke-width="0.824" stroke-miterlimit="10"/>
<path d="M53.1202 77.1437C76.3738 69.2108 92.2832 54.0415 88.6547 43.2621C85.0263 32.4826 63.2339 30.175 39.9803 38.1079C16.7266 46.0408 0.817253 61.2101 4.44572 71.9896C8.07421 82.7689 29.8665 85.0766 53.1202 77.1437Z" stroke="#6A31F6" stroke-width="0.824" stroke-miterlimit="10"/>
<path d="M53.4123 76.1494C76.0406 66.9688 90.9804 51.0233 86.7814 40.5342C82.5823 30.0451 60.8345 28.9844 38.2062 38.1651C15.5779 47.3457 0.638066 63.2912 4.83711 73.7803C9.03614 84.2695 30.784 85.3301 53.4123 76.1494Z" stroke="#6A31F6" stroke-width="0.824" stroke-miterlimit="10"/>
<path d="M53.7019 75.1604C75.7028 64.7333 89.671 48.0114 84.9009 37.8108C80.1306 27.6102 58.4284 27.7937 36.4275 38.2208C14.4266 48.6478 0.45837 65.3699 5.22856 75.5704C9.99875 85.771 31.701 85.5874 53.7019 75.1604Z" stroke="#6A31F6" stroke-width="0.824" stroke-miterlimit="10"/>
<path d="M53.997 74.1557C75.3692 62.4785 88.3642 44.9793 83.0221 35.0702C77.68 25.1611 56.0238 26.5944 34.6515 38.2715C13.2793 49.9488 0.284276 67.4479 5.62639 77.357C10.9685 87.2662 32.6247 85.8329 53.997 74.1557Z" stroke="#6A31F6" stroke-width="0.824" stroke-miterlimit="10"/>
<path d="M54.2829 73.1599C75.0288 60.2358 87.0547 41.963 81.1435 32.3465C75.2323 22.73 53.6225 25.4113 32.8766 38.3354C12.1307 51.2596 0.10486 69.5323 6.01607 79.1489C11.9273 88.7654 33.5371 86.0841 54.2829 73.1599Z" stroke="#6A31F6" stroke-width="0.824" stroke-miterlimit="10"/>
<path d="M54.5789 72.1538C74.6967 57.9778 85.75 38.927 79.267 29.6027C72.7838 20.2783 51.2197 24.2114 31.1018 38.3873C10.9839 52.5633 -0.0692589 71.614 6.41378 80.9383C12.8969 90.2627 34.461 86.3296 54.5789 72.1538Z" stroke="#6A31F6" stroke-width="0.824" stroke-miterlimit="10"/>
<path d="M54.8619 71.1487C74.3528 55.7246 84.4342 35.8964 77.3793 26.8612C70.3243 17.8261 48.8047 23.0054 29.3138 38.4295C9.82288 53.8537 -0.25846 73.6819 6.79647 82.7171C13.8514 91.7521 35.371 86.5729 54.8619 71.1487Z" stroke="#6A31F6" stroke-width="0.824" stroke-miterlimit="10"/>
<path d="M55.1444 70.1578C74.0095 53.485 83.122 32.8815 75.4978 24.1386C67.8737 15.3957 46.3999 21.8243 27.5349 38.4971C8.66975 55.1701 -0.442785 75.7736 7.18142 84.5164C14.8056 93.2592 36.2794 86.8307 55.1444 70.1578Z" stroke="#6A31F6" stroke-width="0.824" stroke-miterlimit="10"/>
<path d="M55.435 69.1566C73.6701 51.236 81.8095 29.8577 73.6148 21.4069C65.4201 12.9561 43.9946 20.633 25.7595 38.5535C7.52437 56.4741 -0.615006 77.8523 7.57966 86.3031C15.7743 94.7539 37.1999 87.0771 55.435 69.1566Z" stroke="#6A31F6" stroke-width="0.824" stroke-miterlimit="10"/>
<path d="M55.7278 68.1593C73.3361 48.9897 80.5039 26.8339 71.7374 18.6731C62.971 10.5122 41.5901 19.4365 23.9818 38.6063C6.37351 57.7759 -0.794206 79.9317 7.97224 88.0925C16.7386 96.2534 38.1196 87.3291 55.7278 68.1593Z" stroke="#6A31F6" stroke-width="0.824" stroke-miterlimit="10"/>
<path d="M56.0137 67.1598C72.9954 46.7425 79.1942 23.8118 69.8589 15.9428C60.5237 8.07379 39.1895 18.2462 22.2077 38.6636C5.22593 59.0809 -0.972829 82.0116 8.36241 89.8806C17.6977 97.7496 39.0319 87.5772 56.0137 67.1598Z" stroke="#6A31F6" stroke-width="0.824" stroke-miterlimit="10"/>
<path d="M56.3041 66.1556C72.6573 44.49 77.8839 20.7834 67.9777 13.2055C58.0716 5.62769 36.7842 17.0481 20.4309 38.7138C4.07767 60.3795 -1.14878 84.086 8.75733 91.6639C18.6634 99.2418 39.9508 87.8213 56.3041 66.1556Z" stroke="#6A31F6" stroke-width="0.824" stroke-miterlimit="10"/>
<path d="M56.5949 65.1569C72.3196 42.2439 76.5738 17.7622 66.097 10.4753C55.6202 3.18846 34.3797 15.8559 18.6551 38.7688C2.93039 61.6818 -1.32383 86.1637 9.15297 93.4505C19.6298 100.737 40.8702 88.0699 56.5949 65.1569Z" stroke="#6A31F6" stroke-width="0.824" stroke-miterlimit="10"/>
<path d="M56.887 64.1755C71.9884 40.0151 75.2744 14.7558 64.2266 7.75732C53.1787 0.758799 31.9803 14.6713 16.8789 38.8317C1.77739 62.9921 -1.50867 88.2514 9.53925 95.2499C20.5872 102.248 41.7854 88.336 56.887 64.1755Z" stroke="#6A31F6" stroke-width="0.824" stroke-miterlimit="10"/>
</g>
</svg>
