<svg width="103" height="105" viewBox="0 0 103 105" fill="none" xmlns="http://www.w3.org/2000/svg">
<g opacity="0.9">
<path d="M87.0408 88.3876C95.5848 79.7598 86.5999 56.6984 66.9724 36.8785C47.345 17.0586 24.5075 7.98563 15.9635 16.6134C7.41945 25.2412 16.4044 48.3026 36.0318 68.1224C55.6593 87.9423 78.4968 97.0153 87.0408 88.3876Z" stroke="#6A31F6" stroke-width="2" stroke-miterlimit="10"/>
<path d="M82.4568 93.0096C91.0008 84.3819 82.0159 61.3205 62.3885 41.5006C42.761 21.6807 19.9235 12.6077 11.3795 21.2355C2.83547 29.8632 11.8204 52.9246 31.4479 72.7445C51.0753 92.5644 73.9128 101.637 82.4568 93.0096Z" stroke="#6A31F6" stroke-width="2" stroke-miterlimit="10"/>
<path d="M89.326 86.0741C97.87 77.4463 88.8851 54.3849 69.2576 34.565C49.6301 14.7451 26.7926 5.67217 18.2486 14.2999C9.70461 22.9277 18.6895 45.9891 38.317 65.809C57.9445 85.6289 80.782 94.7019 89.326 86.0741Z" stroke="#6A31F6" stroke-width="2" stroke-miterlimit="10"/>
<path d="M93.91 81.4511C102.454 72.8233 93.469 49.7619 73.8416 29.942C54.2141 10.1221 31.3766 1.04911 22.8326 9.67688C14.2886 18.3046 23.2735 41.366 42.901 61.1859C62.5285 81.0058 85.366 90.0788 93.91 81.4511Z" stroke="#6A31F6" stroke-width="2" stroke-miterlimit="10"/>
<path d="M96.1951 79.1385C104.739 70.5108 95.7542 47.4494 76.1267 27.6295C56.4993 7.80962 33.6618 -1.26338 25.1178 7.36439C16.5738 15.9921 25.5587 39.0535 45.1861 58.8734C64.8136 78.6933 87.6511 87.7663 96.1951 79.1385Z" stroke="#6A31F6" stroke-width="2" stroke-miterlimit="10"/>
<path d="M91.618 83.7645C100.162 75.1368 91.1771 52.0754 71.5496 32.2555C51.9221 12.4356 29.0846 3.3626 20.5406 11.9903C11.9966 20.6181 20.9815 43.6795 40.609 63.4994C60.2365 83.3193 83.074 92.3923 91.618 83.7645Z" stroke="#6A31F6" stroke-width="2" stroke-miterlimit="10"/>
<path d="M84.7488 90.7001C93.2928 82.0723 84.3079 59.0109 64.6804 39.191C45.053 19.3711 22.2155 10.2981 13.6715 18.9259C5.12746 27.5537 14.1124 50.6151 33.7399 70.4349C53.3673 90.2548 76.2048 99.3278 84.7488 90.7001Z" stroke="#6A31F6" stroke-width="2" stroke-miterlimit="10"/>
<path d="M75.5818 99.9511C84.1258 91.3233 75.1409 68.2619 55.5135 48.442C35.886 28.6221 13.0485 19.5491 4.50449 28.1769C-4.03952 36.8046 4.9454 59.866 24.5729 79.6859C44.2003 99.5058 67.0378 108.579 75.5818 99.9511Z" stroke="#6A31F6" stroke-width="2" stroke-miterlimit="10"/>
<path d="M80.1717 95.3231C88.7157 86.6953 79.7308 63.634 60.1033 43.8141C40.4758 23.9942 17.6383 14.9212 9.09431 23.5489C0.550297 32.1767 9.53522 55.2381 29.1627 75.058C48.7902 94.8779 71.6277 103.951 80.1717 95.3231Z" stroke="#6A31F6" stroke-width="2" stroke-miterlimit="10"/>
<path d="M77.8797 97.6356C86.4237 89.0078 77.4388 65.9465 57.8113 46.1266C38.1838 26.3067 15.3463 17.2337 6.80232 25.8614C-1.74169 34.4892 7.24323 57.5506 26.8707 77.3705C46.4982 97.1904 69.3357 106.263 77.8797 97.6356Z" stroke="#6A31F6" stroke-width="2" stroke-miterlimit="10"/>
<path d="M98.4812 76.8231C107.025 68.1953 98.0403 45.134 78.4129 25.3141C58.7854 5.49418 35.9479 -3.57881 27.4039 5.04896C18.8599 13.6767 27.8448 36.7381 47.4723 56.558C67.0997 76.3779 89.9372 85.4509 98.4812 76.8231Z" stroke="#6A31F6" stroke-width="2" stroke-miterlimit="10"/>
</g>
</svg>
