<svg width="34" height="34" viewBox="0 0 34 34" fill="none" xmlns="http://www.w3.org/2000/svg">
<path d="M16.9967 12.8706C14.723 12.8706 12.8674 14.7261 12.8674 16.9999C12.8674 19.2737 14.723 21.1292 16.9967 21.1292C19.2704 21.1292 21.1259 19.2737 21.1259 16.9999C21.1259 14.7261 19.2704 12.8706 16.9967 12.8706ZM29.3814 16.9999C29.3814 15.2899 29.3968 13.5955 29.3008 11.8886C29.2048 9.90601 28.7525 8.14647 27.3028 6.69671C25.85 5.24386 24.0936 4.79468 22.111 4.69865C20.4011 4.60262 18.7066 4.61811 16.9998 4.61811C15.2899 4.61811 13.5954 4.60262 11.8886 4.69865C9.90603 4.79468 8.14653 5.24696 6.6968 6.69671C5.24397 8.14957 4.7948 9.90601 4.69877 11.8886C4.60274 13.5985 4.61823 15.293 4.61823 16.9999C4.61823 18.7068 4.60274 20.4044 4.69877 22.1112C4.7948 24.0938 5.24707 25.8533 6.6968 27.3031C8.14963 28.7559 9.90603 29.2051 11.8886 29.3012C13.5985 29.3972 15.293 29.3817 16.9998 29.3817C18.7097 29.3817 20.4042 29.3972 22.111 29.3012C24.0936 29.2051 25.8531 28.7528 27.3028 27.3031C28.7556 25.8502 29.2048 24.0938 29.3008 22.1112C29.3999 20.4044 29.3814 18.7099 29.3814 16.9999ZM16.9967 23.3534C13.4808 23.3534 10.6433 20.5159 10.6433 16.9999C10.6433 13.4839 13.4808 10.6464 16.9967 10.6464C20.5126 10.6464 23.3501 13.4839 23.3501 16.9999C23.3501 20.5159 20.5126 23.3534 16.9967 23.3534ZM23.6103 11.87C22.7894 11.87 22.1265 11.2071 22.1265 10.3862C22.1265 9.56525 22.7894 8.90233 23.6103 8.90233C24.4312 8.90233 25.0941 9.56525 25.0941 10.3862C25.0944 10.5811 25.0562 10.7742 24.9817 10.9543C24.9072 11.1344 24.7979 11.2981 24.6601 11.4359C24.5222 11.5738 24.3586 11.6831 24.1784 11.7575C23.9983 11.832 23.8052 11.8702 23.6103 11.87Z" fill="white" fill-opacity="0.6"/>
</svg>
