<svg width="32" height="32" viewBox="0 0 32 32" fill="none" xmlns="http://www.w3.org/2000/svg">
<path d="M29.786 9.38691C29.6266 8.79328 29.3141 8.25193 28.8797 7.81703C28.4454 7.38212 27.9044 7.06893 27.311 6.90879C25.1266 6.32129 16.3704 6.32129 16.3704 6.32129C16.3704 6.32129 7.61411 6.32129 5.42974 6.90566C4.83605 7.06529 4.29481 7.37831 3.86038 7.81329C3.42595 8.24827 3.11361 8.7899 2.95474 9.38379C2.37036 11.5713 2.37036 16.1338 2.37036 16.1338C2.37036 16.1338 2.37036 20.6963 2.95474 22.8807C3.27661 24.0869 4.22661 25.0369 5.42974 25.3588C7.61411 25.9463 16.3704 25.9463 16.3704 25.9463C16.3704 25.9463 25.1266 25.9463 27.311 25.3588C28.5172 25.0369 29.4641 24.0869 29.786 22.8807C30.3704 20.6963 30.3704 16.1338 30.3704 16.1338C30.3704 16.1338 30.3704 11.5713 29.786 9.38691ZM13.5891 20.3213V11.9463L20.8391 16.1025L13.5891 20.3213Z" fill="white" fill-opacity="0.6"/>
</svg>
