<svg width="586" height="286" viewBox="0 0 586 286" fill="none" xmlns="http://www.w3.org/2000/svg">
<path d="M123.499 56.0586L81.9303 97.0949V187.989L123.499 146.939V56.0586Z" fill="black"/>
<path d="M123.497 56.0215H40.9642L0 97.0578H82.4673" fill="black"/>
<path d="M472.305 171.156L526.838 225.686L585.253 226.061L530.713 171.525" fill="black"/>
<path d="M472.305 171.154L530.713 171.523L585.354 116.43L526.932 116.068L472.305 171.154Z" fill="black"/>
<path d="M0 180.029L0.000394777 285.673L40.7915 244.709L40.2525 140.143L0 180.029Z" fill="black"/>
<path d="M278.659 111.036H253.865L215.429 150.383H239.851" fill="black"/>
<path d="M279.742 168.166H303.997L342.432 128.819H318.55" fill="black"/>
<path d="M278.668 111.305V59.291L239.918 98.0992V100.555V150.305L278.668 111.305Z" fill="black"/>
<path d="M279.742 167.897V222.605L318.55 183.797V178.647V128.896L279.742 167.897Z" fill="black"/>
<path d="M181.635 185.957L142.288 225.969H220.982L261.09 185.583" fill="black"/>
<path d="M139.343 96.5368L139.596 223.685L179.866 183.26L179.913 100.136L179.92 56.2646L139.343 96.5368Z" fill="black"/>
<path d="M275.965 56.2646L180.008 56.3182L139.284 96.5368H235.776" fill="black"/>
<path d="M472.503 226.028V0L432.396 39.9571V226.028" fill="black"/>
<path d="M372.98 96.4385L412.866 56.0524H335.249L295.142 96.4385" fill="black"/>
<path d="M415.824 185.484L415.572 58.7488L375.302 99.174L375.255 181.884L375.248 225.756L415.824 185.484Z" fill="black"/>
<path d="M281.357 225.703H375.159L415.883 185.485H321.243" fill="black"/>
</svg>
