<svg width="586" height="286" viewBox="0 0 586 286" fill="none" xmlns="http://www.w3.org/2000/svg">
<path d="M124.145 56.0586L82.5767 97.0949V187.989L124.145 146.939V56.0586Z" fill="white"/>
<path d="M124.143 56.0215H41.6105L0.646362 97.0578H83.1137" fill="white"/>
<path d="M472.951 171.156L527.485 225.686L585.899 226.061L531.359 171.525" fill="white"/>
<path d="M472.951 171.154L531.359 171.523L586 116.43L527.579 116.068L472.951 171.154Z" fill="white"/>
<path d="M0.646362 180.029L0.646757 285.673L41.4378 244.709L40.8988 140.143L0.646362 180.029Z" fill="white"/>
<path d="M279.306 111.036H254.511L216.076 150.383H240.497" fill="white"/>
<path d="M280.388 168.166H304.643L343.079 128.819H319.196" fill="white"/>
<path d="M279.314 111.305V59.291L240.564 98.0992V100.555V150.305L279.314 111.305Z" fill="white"/>
<path d="M280.388 167.897V222.605L319.196 183.797V178.647V128.896L280.388 167.897Z" fill="white"/>
<path d="M182.281 185.957L142.934 225.969H221.629L261.736 185.583" fill="white"/>
<path d="M139.99 96.5368L140.242 223.685L180.513 183.26L180.56 100.136L180.566 56.2646L139.99 96.5368Z" fill="white"/>
<path d="M276.612 56.2646L180.654 56.3182L139.93 96.5368H236.422" fill="white"/>
<path d="M473.15 226.028V0L433.042 39.9571V226.028" fill="white"/>
<path d="M373.626 96.4385L413.512 56.0523H335.896L295.789 96.4385" fill="white"/>
<path d="M416.471 185.484L416.218 58.7488L375.948 99.174L375.901 181.884L375.894 225.756L416.471 185.484Z" fill="white"/>
<path d="M282.004 225.703H375.805L416.529 185.485H321.89" fill="white"/>
</svg>
